<?xml version="1.0" encoding="utf-8"?>
<!-- Generator: Adobe Illustrator 25.4.1, SVG Export Plug-In . SVG Version: 6.00 Build 0)  -->
<svg version="1.1" id="Layer_1" xmlns="http://www.w3.org/2000/svg" xmlns:xlink="http://www.w3.org/1999/xlink" x="0px" y="0px"
	 viewBox="0 0 123.93 61.4" style="enable-background:new 0 0 123.93 61.4;" xml:space="preserve">
<style type="text/css">
	.st0{fill:#93C7EC;}
</style>
<g>
	<g>
		<path class="st0" d="M35.55,47.36c-0.02,0.19-0.08,0.73-0.17,1.6c-0.09,0.88-0.19,1.84-0.27,2.87c-0.17,0-0.35,0-0.56,0
			s-0.39,0-0.56,0c-5.16,0-9.75-0.65-13.77-1.95c-4.02-1.3-7.32-3.19-9.9-5.67c-1.8-1.71-3.22-3.77-4.27-6.16
			C5,35.67,4.48,32.94,4.48,29.87c0-2.75,0.52-5.26,1.56-7.54c1.04-2.27,2.39-4.26,4.06-5.95c2.43-2.45,5.7-4.4,9.81-5.84
			C24,9.1,28.4,8.38,33.07,8.38c0.23,0,0.5,0,0.79,0c0.3,0,0.51,0,0.63,0c0.02,0.38,0.06,0.99,0.13,1.82
			c0.06,0.84,0.14,1.74,0.22,2.71c-0.21,0-0.39,0-0.54,0s-0.33,0-0.54,0c-2.65,0-5.39,0.29-8.23,0.87
			c-2.84,0.58-5.29,1.45-7.34,2.62c-2.67,1.52-4.72,3.48-6.17,5.86c-1.44,2.38-2.16,4.95-2.16,7.7c0,2.86,0.65,5.45,1.94,7.79
			c1.29,2.34,3.34,4.3,6.13,5.89c2.29,1.31,4.85,2.26,7.67,2.86c2.83,0.59,5.64,0.89,8.44,0.89c0.13,0,0.33,0,0.6,0
			C34.93,47.39,35.23,47.38,35.55,47.36z"/>
	</g>
</g>
<g>
	<g>
		<path class="st0" d="M66.76,48.72l-3.97,3.27c-0.46-0.49-2.11-2.32-4.95-5.51c-2.83-3.19-7.2-8.16-13.1-14.91l0.03-0.29
			c0.8-0.21,1.87-0.67,3.21-1.38s2.46-1.48,3.37-2.3c0.78-0.72,1.47-1.61,2.05-2.67c0.58-1.06,0.87-2.48,0.87-4.26
			c0-1.63-0.43-3.03-1.29-4.21c-0.86-1.18-2.04-2.04-3.54-2.59c-1.23-0.47-2.52-0.75-3.87-0.84c-1.35-0.1-2.6-0.14-3.75-0.14
			c-0.76,0-1.34,0.01-1.75,0.02c-0.4,0.01-0.7,0.02-0.89,0.02c-0.04,4.02-0.07,7.57-0.08,10.64c-0.01,3.07-0.02,5.24-0.02,6.51
			c0,2.9,0.02,6.84,0.05,11.82c0.03,4.98,0.06,8.1,0.08,9.37h-5.24c0.02-1.27,0.05-3.73,0.1-7.38c0.04-3.65,0.06-8.19,0.06-13.63
			c0-1.06,0-3.02,0-5.87s-0.05-8.06-0.16-15.62c0.21,0,1.27-0.02,3.17-0.06c1.9-0.04,3.66-0.06,5.26-0.06
			c1.84,0,3.62,0.11,5.36,0.32c1.73,0.21,3.42,0.67,5.07,1.36c2.09,0.89,3.75,2.19,4.98,3.92c1.23,1.72,1.84,3.75,1.84,6.07
			c0,3-0.92,5.5-2.77,7.5c-1.85,2-3.6,3.48-5.24,4.46v0.16c2.9,3.39,6.08,6.88,9.54,10.48S66.51,48.45,66.76,48.72z"/>
	</g>
</g>
<g>
	<g>
		<path class="st0" d="M118.27,51.8l-5.17,1.02l-6.55-35.62l-0.04-0.05c-0.83,1.72-2.66,5.7-5.5,11.94
			c-2.84,6.25-5.6,12.51-8.29,18.8h-4.38c-2.52-5.82-5.3-12.11-8.35-18.87s-4.84-10.7-5.37-11.83l-0.06,0
			c-0.13,0.55-0.99,4.6-2.57,12.14s-3.1,15.35-4.54,23.42l-4.87-0.89c2.12-9.12,4.09-18.15,5.93-27.1
			c1.84-8.95,2.85-13.81,3.02-14.57l5.05-0.73c0.21,0.49,1.71,3.89,4.49,10.22c2.78,6.33,6.06,13.62,9.82,21.87h0.19
			c2.88-6.47,5.92-13.37,9.14-20.69c3.22-7.32,4.89-11.12,5.01-11.39l4.79,0.38c0.06,0.47,0.94,5.1,2.63,13.92
			C114.35,32.58,116.22,41.92,118.27,51.8z"/>
	</g>
</g>
</svg>
