<svg xmlns="http://www.w3.org/2000/svg" version="1.1" xmlns:xlink="http://www.w3.org/1999/xlink" xmlns:svgjs="http://svgjs.com/svgjs" width="1440" height="560" preserveAspectRatio="none" viewBox="0 0 1440 560">

<g mask="url(&quot;#SvgjsMask1033&quot;)" fill="none"><rect width="1440" height="560" x="0" y="0" fill="#0e2a47"></rect><path d="M-112.36 365.07L-112.36 365.07" stroke="#132e65" stroke-width="1.5"></path><path d="M-112.36 365.07L-67.69 539.27" stroke="#132e65" stroke-width="1.5"></path><path d="M-112.36 365.07L93.11 401.39" stroke="#132e65" stroke-width="1.5"></path><path d="M-112.36 365.07L45.22 504.82" stroke="#132e65" stroke-width="1.5"></path><path d="M-112.36 365.07L-52.28 682.35" stroke="#132e65" stroke-width="1.5"></path><path d="M-112.36 365.07L246.43 411.16" stroke="#132e65" stroke-width="1.5"></path><path d="M-67.69 539.27L-67.69 539.27" stroke="#132e65" stroke-width="1.5"></path><path d="M-67.69 539.27L45.22 504.82" stroke="#132e65" stroke-width="1.5"></path><path d="M-67.69 539.27L-52.28 682.35" stroke="#132e65" stroke-width="1.5"></path><path d="M-67.69 539.27L93.11 401.39" stroke="#132e65" stroke-width="1.5"></path><path d="M-67.69 539.27L100.19 686.85" stroke="#132e65" stroke-width="1.5"></path><path d="M-52.28 682.35L-52.28 682.35" stroke="#132e65" stroke-width="1.5"></path><path d="M-52.28 682.35L100.19 686.85" stroke="#132e65" stroke-width="1.5"></path><path d="M-52.28 682.35L45.22 504.82" stroke="#132e65" stroke-width="1.5"></path><path d="M-52.28 682.35L227.87 690.69" stroke="#132e65" stroke-width="1.5"></path><path d="M93.11 401.39L93.11 401.39" stroke="#132e65" stroke-width="1.5"></path><path d="M93.11 401.39L45.22 504.82" stroke="#132e65" stroke-width="1.5"></path><path d="M93.11 401.39L246.43 411.16" stroke="#132e65" stroke-width="1.5"></path><path d="M45.22 504.82L45.22 504.82" stroke="#132e65" stroke-width="1.5"></path><path d="M45.22 504.82L234.57 519.26" stroke="#132e65" stroke-width="1.5"></path><path d="M100.19 686.85L100.19 686.85" stroke="#132e65" stroke-width="1.5"></path><path d="M100.19 686.85L227.87 690.69" stroke="#132e65" stroke-width="1.5"></path><path d="M100.19 686.85L45.22 504.82" stroke="#132e65" stroke-width="1.5"></path><path d="M100.19 686.85L234.57 519.26" stroke="#132e65" stroke-width="1.5"></path><path d="M246.43 411.16L246.43 411.16" stroke="#132e65" stroke-width="1.5"></path><path d="M246.43 411.16L234.57 519.26" stroke="#132e65" stroke-width="1.5"></path><path d="M246.43 411.16L356.06 351.37" stroke="#132e65" stroke-width="1.5"></path><path d="M234.57 519.26L234.57 519.26" stroke="#132e65" stroke-width="1.5"></path><path d="M234.57 519.26L227.87 690.69" stroke="#132e65" stroke-width="1.5"></path><path d="M227.87 690.69L227.87 690.69" stroke="#132e65" stroke-width="1.5"></path><path d="M227.87 690.69L345.41 687.08" stroke="#132e65" stroke-width="1.5"></path><path d="M227.87 690.69L45.22 504.82" stroke="#132e65" stroke-width="1.5"></path><path d="M356.06 351.37L356.06 351.37" stroke="#132e65" stroke-width="1.5"></path><path d="M356.06 351.37L527.17 353.48" stroke="#132e65" stroke-width="1.5"></path><path d="M356.06 351.37L234.57 519.26" stroke="#132e65" stroke-width="1.5"></path><path d="M345.41 687.08L345.41 687.08" stroke="#132e65" stroke-width="1.5"></path><path d="M345.41 687.08L498.27 648.17" stroke="#132e65" stroke-width="1.5"></path><path d="M345.41 687.08L234.57 519.26" stroke="#132e65" stroke-width="1.5"></path><path d="M345.41 687.08L100.19 686.85" stroke="#132e65" stroke-width="1.5"></path><path d="M345.41 687.08L537.44 528.21" stroke="#132e65" stroke-width="1.5"></path><path d="M345.41 687.08L246.43 411.16" stroke="#132e65" stroke-width="1.5"></path><path d="M527.17 353.48L527.17 353.48" stroke="#132e65" stroke-width="1.5"></path><path d="M527.17 353.48L669.75 379.35" stroke="#132e65" stroke-width="1.5"></path><path d="M527.17 353.48L638.83 239.45" stroke="#132e65" stroke-width="1.5"></path><path d="M527.17 353.48L537.44 528.21" stroke="#132e65" stroke-width="1.5"></path><path d="M537.44 528.21L537.44 528.21" stroke="#132e65" stroke-width="1.5"></path><path d="M537.44 528.21L642.92 517.05" stroke="#132e65" stroke-width="1.5"></path><path d="M537.44 528.21L498.27 648.17" stroke="#132e65" stroke-width="1.5"></path><path d="M537.44 528.21L669.75 379.35" stroke="#132e65" stroke-width="1.5"></path><path d="M537.44 528.21L674.08 676.89" stroke="#132e65" stroke-width="1.5"></path><path d="M498.27 648.17L498.27 648.17" stroke="#132e65" stroke-width="1.5"></path><path d="M498.27 648.17L674.08 676.89" stroke="#132e65" stroke-width="1.5"></path><path d="M498.27 648.17L642.92 517.05" stroke="#132e65" stroke-width="1.5"></path><path d="M498.27 648.17L227.87 690.69" stroke="#132e65" stroke-width="1.5"></path><path d="M498.27 648.17L787.88 683.13" stroke="#132e65" stroke-width="1.5"></path><path d="M638.83 239.45L638.83 239.45" stroke="#132e65" stroke-width="1.5"></path><path d="M638.83 239.45L669.75 379.35" stroke="#132e65" stroke-width="1.5"></path><path d="M669.75 379.35L669.75 379.35" stroke="#132e65" stroke-width="1.5"></path><path d="M669.75 379.35L642.92 517.05" stroke="#132e65" stroke-width="1.5"></path><path d="M669.75 379.35L834.26 363.02" stroke="#132e65" stroke-width="1.5"></path><path d="M642.92 517.05L642.92 517.05" stroke="#132e65" stroke-width="1.5"></path><path d="M642.92 517.05L674.08 676.89" stroke="#132e65" stroke-width="1.5"></path><path d="M674.08 676.89L674.08 676.89" stroke="#132e65" stroke-width="1.5"></path><path d="M674.08 676.89L787.88 683.13" stroke="#132e65" stroke-width="1.5"></path><path d="M819.93 238.76L819.93 238.76" stroke="#132e65" stroke-width="1.5"></path><path d="M819.93 238.76L834.26 363.02" stroke="#132e65" stroke-width="1.5"></path><path d="M819.93 238.76L968.37 241.43" stroke="#132e65" stroke-width="1.5"></path><path d="M819.93 238.76L638.83 239.45" stroke="#132e65" stroke-width="1.5"></path><path d="M819.93 238.76L669.75 379.35" stroke="#132e65" stroke-width="1.5"></path><path d="M834.26 363.02L834.26 363.02" stroke="#132e65" stroke-width="1.5"></path><path d="M834.26 363.02L840.49 522.34" stroke="#132e65" stroke-width="1.5"></path><path d="M840.49 522.34L840.49 522.34" stroke="#132e65" stroke-width="1.5"></path><path d="M840.49 522.34L942.04 539.97" stroke="#132e65" stroke-width="1.5"></path><path d="M840.49 522.34L787.88 683.13" stroke="#132e65" stroke-width="1.5"></path><path d="M840.49 522.34L642.92 517.05" stroke="#132e65" stroke-width="1.5"></path><path d="M840.49 522.34L1007.31 401.58" stroke="#132e65" stroke-width="1.5"></path><path d="M787.88 683.13L787.88 683.13" stroke="#132e65" stroke-width="1.5"></path><path d="M787.88 683.13L981.83 681.37" stroke="#132e65" stroke-width="1.5"></path><path d="M787.88 683.13L942.04 539.97" stroke="#132e65" stroke-width="1.5"></path><path d="M787.88 683.13L642.92 517.05" stroke="#132e65" stroke-width="1.5"></path><path d="M1010.9 -45.59L1010.9 -45.59" stroke="#132e65" stroke-width="1.5"></path><path d="M1010.9 -45.59L962.51 69.16" stroke="#132e65" stroke-width="1.5"></path><path d="M1010.9 -45.59L1155.29 -64.41" stroke="#132e65" stroke-width="1.5"></path><path d="M1010.9 -45.59L1139.42 111.15" stroke="#132e65" stroke-width="1.5"></path><path d="M962.51 69.16L962.51 69.16" stroke="#132e65" stroke-width="1.5"></path><path d="M962.51 69.16L968.37 241.43" stroke="#132e65" stroke-width="1.5"></path><path d="M962.51 69.16L1139.42 111.15" stroke="#132e65" stroke-width="1.5"></path><path d="M962.51 69.16L819.93 238.76" stroke="#132e65" stroke-width="1.5"></path><path d="M962.51 69.16L1155.29 -64.41" stroke="#132e65" stroke-width="1.5"></path><path d="M968.37 241.43L968.37 241.43" stroke="#132e65" stroke-width="1.5"></path><path d="M968.37 241.43L1126.06 240.69" stroke="#132e65" stroke-width="1.5"></path><path d="M968.37 241.43L1007.31 401.58" stroke="#132e65" stroke-width="1.5"></path><path d="M968.37 241.43L834.26 363.02" stroke="#132e65" stroke-width="1.5"></path><path d="M1007.31 401.58L1007.31 401.58" stroke="#132e65" stroke-width="1.5"></path><path d="M1007.31 401.58L1124.2 408.06" stroke="#132e65" stroke-width="1.5"></path><path d="M1007.31 401.58L942.04 539.97" stroke="#132e65" stroke-width="1.5"></path><path d="M942.04 539.97L942.04 539.97" stroke="#132e65" stroke-width="1.5"></path><path d="M942.04 539.97L981.83 681.37" stroke="#132e65" stroke-width="1.5"></path><path d="M981.83 681.37L981.83 681.37" stroke="#132e65" stroke-width="1.5"></path><path d="M981.83 681.37L1096.26 678.26" stroke="#132e65" stroke-width="1.5"></path><path d="M981.83 681.37L840.49 522.34" stroke="#132e65" stroke-width="1.5"></path><path d="M981.83 681.37L1251.15 651.12" stroke="#132e65" stroke-width="1.5"></path><path d="M1155.29 -64.41L1155.29 -64.41" stroke="#132e65" stroke-width="1.5"></path><path d="M1155.29 -64.41L1261.29 -80.24" stroke="#132e65" stroke-width="1.5"></path><path d="M1155.29 -64.41L1139.42 111.15" stroke="#132e65" stroke-width="1.5"></path><path d="M1155.29 -64.41L1255.33 110.33" stroke="#132e65" stroke-width="1.5"></path><path d="M1139.42 111.15L1139.42 111.15" stroke="#132e65" stroke-width="1.5"></path><path d="M1139.42 111.15L1255.33 110.33" stroke="#132e65" stroke-width="1.5"></path><path d="M1139.42 111.15L1126.06 240.69" stroke="#132e65" stroke-width="1.5"></path><path d="M1139.42 111.15L1267.11 205.19" stroke="#132e65" stroke-width="1.5"></path><path d="M1126.06 240.69L1126.06 240.69" stroke="#132e65" stroke-width="1.5"></path><path d="M1126.06 240.69L1267.11 205.19" stroke="#132e65" stroke-width="1.5"></path><path d="M1126.06 240.69L1124.2 408.06" stroke="#132e65" stroke-width="1.5"></path><path d="M1126.06 240.69L1255.33 110.33" stroke="#132e65" stroke-width="1.5"></path><path d="M1124.2 408.06L1124.2 408.06" stroke="#132e65" stroke-width="1.5"></path><path d="M1124.2 408.06L1256.81 406.16" stroke="#132e65" stroke-width="1.5"></path><path d="M1096.26 678.26L1096.26 678.26" stroke="#132e65" stroke-width="1.5"></path><path d="M1096.26 678.26L1251.15 651.12" stroke="#132e65" stroke-width="1.5"></path><path d="M1261.29 -80.24L1261.29 -80.24" stroke="#132e65" stroke-width="1.5"></path><path d="M1261.29 -80.24L1440.71 -76.82" stroke="#132e65" stroke-width="1.5"></path><path d="M1261.29 -80.24L1255.33 110.33" stroke="#132e65" stroke-width="1.5"></path><path d="M1261.29 -80.24L1139.42 111.15" stroke="#132e65" stroke-width="1.5"></path><path d="M1255.33 110.33L1255.33 110.33" stroke="#132e65" stroke-width="1.5"></path><path d="M1255.33 110.33L1267.11 205.19" stroke="#132e65" stroke-width="1.5"></path><path d="M1267.11 205.19L1267.11 205.19" stroke="#132e65" stroke-width="1.5"></path><path d="M1267.11 205.19L1403.21 238.78" stroke="#132e65" stroke-width="1.5"></path><path d="M1256.81 406.16L1256.81 406.16" stroke="#132e65" stroke-width="1.5"></path><path d="M1256.81 406.16L1273.15 534.08" stroke="#132e65" stroke-width="1.5"></path><path d="M1256.81 406.16L1445.32 343.49" stroke="#132e65" stroke-width="1.5"></path><path d="M1273.15 534.08L1273.15 534.08" stroke="#132e65" stroke-width="1.5"></path><path d="M1273.15 534.08L1251.15 651.12" stroke="#132e65" stroke-width="1.5"></path><path d="M1251.15 651.12L1251.15 651.12" stroke="#132e65" stroke-width="1.5"></path><path d="M1251.15 651.12L1419.23 669.92" stroke="#132e65" stroke-width="1.5"></path><path d="M1251.15 651.12L1256.81 406.16" stroke="#132e65" stroke-width="1.5"></path><path d="M1251.15 651.12L1437.84 489.8" stroke="#132e65" stroke-width="1.5"></path><path d="M1440.71 -76.82L1440.71 -76.82" stroke="#132e65" stroke-width="1.5"></path><path d="M1440.71 -76.82L1576.8 -103.85" stroke="#132e65" stroke-width="1.5"></path><path d="M1440.71 -76.82L1435.78 97.31" stroke="#132e65" stroke-width="1.5"></path><path d="M1435.78 97.31L1435.78 97.31" stroke="#132e65" stroke-width="1.5"></path><path d="M1435.78 97.31L1403.21 238.78" stroke="#132e65" stroke-width="1.5"></path><path d="M1435.78 97.31L1588.47 51.49" stroke="#132e65" stroke-width="1.5"></path><path d="M1435.78 97.31L1255.33 110.33" stroke="#132e65" stroke-width="1.5"></path><path d="M1435.78 97.31L1560.87 237.51" stroke="#132e65" stroke-width="1.5"></path><path d="M1435.78 97.31L1267.11 205.19" stroke="#132e65" stroke-width="1.5"></path><path d="M1403.21 238.78L1403.21 238.78" stroke="#132e65" stroke-width="1.5"></path><path d="M1403.21 238.78L1445.32 343.49" stroke="#132e65" stroke-width="1.5"></path><path d="M1403.21 238.78L1560.87 237.51" stroke="#132e65" stroke-width="1.5"></path><path d="M1403.21 238.78L1255.33 110.33" stroke="#132e65" stroke-width="1.5"></path><path d="M1445.32 343.49L1445.32 343.49" stroke="#132e65" stroke-width="1.5"></path><path d="M1445.32 343.49L1437.84 489.8" stroke="#132e65" stroke-width="1.5"></path><path d="M1437.84 489.8L1437.84 489.8" stroke="#132e65" stroke-width="1.5"></path><path d="M1437.84 489.8L1273.15 534.08" stroke="#132e65" stroke-width="1.5"></path><path d="M1419.23 669.92L1419.23 669.92" stroke="#132e65" stroke-width="1.5"></path><path d="M1419.23 669.92L1546.21 679.94" stroke="#132e65" stroke-width="1.5"></path><path d="M1419.23 669.92L1437.84 489.8" stroke="#132e65" stroke-width="1.5"></path><path d="M1419.23 669.92L1273.15 534.08" stroke="#132e65" stroke-width="1.5"></path><path d="M1419.23 669.92L1609.61 543.1" stroke="#132e65" stroke-width="1.5"></path><path d="M1419.23 669.92L1256.81 406.16" stroke="#132e65" stroke-width="1.5"></path><path d="M1576.8 -103.85L1576.8 -103.85" stroke="#132e65" stroke-width="1.5"></path><path d="M1576.8 -103.85L1588.47 51.49" stroke="#132e65" stroke-width="1.5"></path><path d="M1576.8 -103.85L1435.78 97.31" stroke="#132e65" stroke-width="1.5"></path><path d="M1588.47 51.49L1588.47 51.49" stroke="#132e65" stroke-width="1.5"></path><path d="M1588.47 51.49L1560.87 237.51" stroke="#132e65" stroke-width="1.5"></path><path d="M1588.47 51.49L1440.71 -76.82" stroke="#132e65" stroke-width="1.5"></path><path d="M1588.47 51.49L1403.21 238.78" stroke="#132e65" stroke-width="1.5"></path><path d="M1588.47 51.49L1445.32 343.49" stroke="#132e65" stroke-width="1.5"></path><path d="M1560.87 237.51L1560.87 237.51" stroke="#132e65" stroke-width="1.5"></path><path d="M1560.87 237.51L1588.71 377.77" stroke="#132e65" stroke-width="1.5"></path><path d="M1560.87 237.51L1445.32 343.49" stroke="#132e65" stroke-width="1.5"></path><path d="M1588.71 377.77L1588.71 377.77" stroke="#132e65" stroke-width="1.5"></path><path d="M1609.61 543.1L1609.61 543.1" stroke="#132e65" stroke-width="1.5"></path><path d="M1609.61 543.1L1546.21 679.94" stroke="#132e65" stroke-width="1.5"></path><path d="M1609.61 543.1L1588.71 377.77" stroke="#132e65" stroke-width="1.5"></path><path d="M1546.21 679.94L1546.21 679.94" stroke="#132e65" stroke-width="1.5"></path><circle r="5" cx="-112.36" cy="365.07" fill="#132e65"></circle><circle r="5" cx="-67.69" cy="539.27" fill="#132e65"></circle><circle r="5" cx="-52.28" cy="682.35" fill="#132e65"></circle><circle r="5" cx="93.11" cy="401.39" fill="#132e65"></circle><circle r="5" cx="45.22" cy="504.82" fill="#132e65"></circle><circle r="5" cx="100.19" cy="686.85" fill="#132e65"></circle><circle r="5" cx="246.43" cy="411.16" fill="#132e65"></circle><circle r="5" cx="234.57" cy="519.26" fill="#132e65"></circle><circle r="5" cx="227.87" cy="690.69" fill="#132e65"></circle><circle r="5" cx="356.06" cy="351.37" fill="#132e65"></circle><circle r="5" cx="345.41" cy="687.08" fill="#132e65"></circle><circle r="5" cx="527.17" cy="353.48" fill="#132e65"></circle><circle r="5" cx="537.44" cy="528.21" fill="#132e65"></circle><circle r="5" cx="498.27" cy="648.17" fill="#132e65"></circle><circle r="5" cx="638.83" cy="239.45" fill="#132e65"></circle><circle r="5" cx="669.75" cy="379.35" fill="#132e65"></circle><circle r="5" cx="642.92" cy="517.05" fill="#132e65"></circle><circle r="5" cx="674.08" cy="676.89" fill="#132e65"></circle><circle r="5" cx="819.93" cy="238.76" fill="#132e65"></circle><circle r="5" cx="834.26" cy="363.02" fill="#132e65"></circle><circle r="5" cx="840.49" cy="522.34" fill="#132e65"></circle><circle r="5" cx="787.88" cy="683.13" fill="#132e65"></circle><circle r="5" cx="1010.9" cy="-45.59" fill="#132e65"></circle><circle r="5" cx="962.51" cy="69.16" fill="#132e65"></circle><circle r="5" cx="968.37" cy="241.43" fill="#132e65"></circle><circle r="5" cx="1007.31" cy="401.58" fill="#132e65"></circle><circle r="5" cx="942.04" cy="539.97" fill="#132e65"></circle><circle r="5" cx="981.83" cy="681.37" fill="#132e65"></circle><circle r="5" cx="1155.29" cy="-64.41" fill="#132e65"></circle><circle r="5" cx="1139.42" cy="111.15" fill="#132e65"></circle><circle r="5" cx="1126.06" cy="240.69" fill="#132e65"></circle><circle r="5" cx="1124.2" cy="408.06" fill="#132e65"></circle><circle r="5" cx="1096.26" cy="678.26" fill="#132e65"></circle><circle r="5" cx="1261.29" cy="-80.24" fill="#132e65"></circle><circle r="5" cx="1255.33" cy="110.33" fill="#132e65"></circle><circle r="5" cx="1267.11" cy="205.19" fill="#132e65"></circle><circle r="5" cx="1256.81" cy="406.16" fill="#132e65"></circle><circle r="5" cx="1273.15" cy="534.08" fill="#132e65"></circle><circle r="5" cx="1251.15" cy="651.12" fill="#132e65"></circle><circle r="5" cx="1440.71" cy="-76.82" fill="#132e65"></circle><circle r="5" cx="1435.78" cy="97.31" fill="#132e65"></circle><circle r="5" cx="1403.21" cy="238.78" fill="#132e65"></circle><circle r="5" cx="1445.32" cy="343.49" fill="#132e65"></circle><circle r="5" cx="1437.84" cy="489.8" fill="#132e65"></circle><circle r="5" cx="1419.23" cy="669.92" fill="#132e65"></circle><circle r="5" cx="1576.8" cy="-103.85" fill="#132e65"></circle><circle r="5" cx="1588.47" cy="51.49" fill="#132e65"></circle><circle r="5" cx="1560.87" cy="237.51" fill="#132e65"></circle><circle r="5" cx="1588.71" cy="377.77" fill="#132e65"></circle><circle r="5" cx="1609.61" cy="543.1" fill="#132e65"></circle><circle r="5" cx="1546.21" cy="679.94" fill="#132e65"></circle><path d="M407.94 647.75L407.94 647.75" stroke="hsl(224.60000000000002, 64.7%, 47.7%)" stroke-width="1.5"></path><path d="M407.94 647.75L411.25 542.75" stroke="hsl(224.60000000000002, 64.7%, 47.7%)" stroke-width="1.5"></path><path d="M407.94 647.75L495.03 537.23" stroke="hsl(224.60000000000002, 64.7%, 47.7%)" stroke-width="1.5"></path><path d="M407.94 647.75L555.44 671.88" stroke="hsl(224.60000000000002, 64.7%, 47.7%)" stroke-width="1.5"></path><path d="M555.44 671.88L555.44 671.88" stroke="hsl(224.60000000000002, 64.7%, 47.7%)" stroke-width="1.5"></path><path d="M555.44 671.88L645.87 684.82" stroke="hsl(224.60000000000002, 64.7%, 47.7%)" stroke-width="1.5"></path><path d="M555.44 671.88L495.03 537.23" stroke="hsl(224.60000000000002, 64.7%, 47.7%)" stroke-width="1.5"></path><path d="M555.44 671.88L411.25 542.75" stroke="hsl(224.60000000000002, 64.7%, 47.7%)" stroke-width="1.5"></path><path d="M835.25 351.68L835.25 351.68" stroke="hsl(224.60000000000002, 64.7%, 47.7%)" stroke-width="1.5"></path><path d="M835.25 351.68L710.76 396.88" stroke="hsl(224.60000000000002, 64.7%, 47.7%)" stroke-width="1.5"></path><path d="M835.25 351.68L994.85 352.6" stroke="hsl(224.60000000000002, 64.7%, 47.7%)" stroke-width="1.5"></path><path d="M835.25 351.68L808.7 520.44" stroke="hsl(224.60000000000002, 64.7%, 47.7%)" stroke-width="1.5"></path><path d="M835.25 351.68L698.42 503.34" stroke="hsl(224.60000000000002, 64.7%, 47.7%)" stroke-width="1.5"></path><path d="M808.7 520.44L808.7 520.44" stroke="hsl(224.60000000000002, 64.7%, 47.7%)" stroke-width="1.5"></path><path d="M808.7 520.44L698.42 503.34" stroke="hsl(224.60000000000002, 64.7%, 47.7%)" stroke-width="1.5"></path><path d="M808.7 520.44L801.66 660.1" stroke="hsl(224.60000000000002, 64.7%, 47.7%)" stroke-width="1.5"></path><path d="M808.7 520.44L956.46 520.47" stroke="hsl(224.60000000000002, 64.7%, 47.7%)" stroke-width="1.5"></path><path d="M968.01 669.97L968.01 669.97" stroke="hsl(224.60000000000002, 64.7%, 47.7%)" stroke-width="1.5"></path><path d="M968.01 669.97L1094.91 652.19" stroke="hsl(224.60000000000002, 64.7%, 47.7%)" stroke-width="1.5"></path><path d="M968.01 669.97L956.46 520.47" stroke="hsl(224.60000000000002, 64.7%, 47.7%)" stroke-width="1.5"></path><path d="M968.01 669.97L801.66 660.1" stroke="hsl(224.60000000000002, 64.7%, 47.7%)" stroke-width="1.5"></path><path d="M968.01 669.97L808.7 520.44" stroke="hsl(224.60000000000002, 64.7%, 47.7%)" stroke-width="1.5"></path><path d="M1135.2 112.08L1135.2 112.08" stroke="hsl(224.60000000000002, 64.7%, 47.7%)" stroke-width="1.5"></path><path d="M1135.2 112.08L1122.32 215.55" stroke="hsl(224.60000000000002, 64.7%, 47.7%)" stroke-width="1.5"></path><path d="M1135.2 112.08L1250.69 189.14" stroke="hsl(224.60000000000002, 64.7%, 47.7%)" stroke-width="1.5"></path><path d="M1110.73 490.34L1110.73 490.34" stroke="hsl(224.60000000000002, 64.7%, 47.7%)" stroke-width="1.5"></path><path d="M1110.73 490.34L956.46 520.47" stroke="hsl(224.60000000000002, 64.7%, 47.7%)" stroke-width="1.5"></path><path d="M1110.73 490.34L1094.91 652.19" stroke="hsl(224.60000000000002, 64.7%, 47.7%)" stroke-width="1.5"></path><path d="M1288.13 508.38L1288.13 508.38" stroke="hsl(224.60000000000002, 64.7%, 47.7%)" stroke-width="1.5"></path><path d="M1288.13 508.38L1262.83 349.62" stroke="hsl(224.60000000000002, 64.7%, 47.7%)" stroke-width="1.5"></path><path d="M1288.13 508.38L1299.03 668.86" stroke="hsl(224.60000000000002, 64.7%, 47.7%)" stroke-width="1.5"></path><path d="M1288.13 508.38L1406.77 387.52" stroke="hsl(224.60000000000002, 64.7%, 47.7%)" stroke-width="1.5"></path><path d="M1288.13 508.38L1110.73 490.34" stroke="hsl(224.60000000000002, 64.7%, 47.7%)" stroke-width="1.5"></path><path d="M1288.13 508.38L1461.71 561.14" stroke="hsl(224.60000000000002, 64.7%, 47.7%)" stroke-width="1.5"></path><path d="M1288.13 508.38L1395.56 704.27" stroke="hsl(224.60000000000002, 64.7%, 47.7%)" stroke-width="1.5"></path><path d="M1414.83 201.77L1414.83 201.77" stroke="hsl(224.60000000000002, 64.7%, 47.7%)" stroke-width="1.5"></path><path d="M1414.83 201.77L1401.83 92.68" stroke="hsl(224.60000000000002, 64.7%, 47.7%)" stroke-width="1.5"></path><path d="M1414.83 201.77L1566.44 240.01" stroke="hsl(224.60000000000002, 64.7%, 47.7%)" stroke-width="1.5"></path><path d="M1414.83 201.77L1250.69 189.14" stroke="hsl(224.60000000000002, 64.7%, 47.7%)" stroke-width="1.5"></path><path d="M1414.83 201.77L1276.76 80.96" stroke="hsl(224.60000000000002, 64.7%, 47.7%)" stroke-width="1.5"></path><path d="M-105.9 552.19L-105.9 552.19" stroke="hsl(224.60000000000002, 64.7%, 47.7%)" stroke-width="1.5"></path><path d="M-105.9 552.19L-92.43 674.37" stroke="hsl(224.60000000000002, 64.7%, 47.7%)" stroke-width="1.5"></path><path d="M-105.9 552.19L69.22 530.5" stroke="hsl(224.60000000000002, 64.7%, 47.7%)" stroke-width="1.5"></path><path d="M-105.9 552.19L195.83 678.89" stroke="hsl(224.60000000000002, 64.7%, 47.7%)" stroke-width="1.5"></path><path d="M-105.9 552.19L232.06 500.56" stroke="hsl(224.60000000000002, 64.7%, 47.7%)" stroke-width="1.5"></path><path d="M-105.9 552.19L411.25 542.75" stroke="hsl(224.60000000000002, 64.7%, 47.7%)" stroke-width="1.5"></path><path d="M-92.43 674.37L-92.43 674.37" stroke="hsl(224.60000000000002, 64.7%, 47.7%)" stroke-width="1.5"></path><path d="M-92.43 674.37L69.22 530.5" stroke="hsl(224.60000000000002, 64.7%, 47.7%)" stroke-width="1.5"></path><path d="M-92.43 674.37L195.83 678.89" stroke="hsl(224.60000000000002, 64.7%, 47.7%)" stroke-width="1.5"></path><path d="M69.22 530.5L69.22 530.5" stroke="hsl(224.60000000000002, 64.7%, 47.7%)" stroke-width="1.5"></path><path d="M69.22 530.5L232.06 500.56" stroke="hsl(224.60000000000002, 64.7%, 47.7%)" stroke-width="1.5"></path><path d="M232.06 500.56L232.06 500.56" stroke="hsl(224.60000000000002, 64.7%, 47.7%)" stroke-width="1.5"></path><path d="M232.06 500.56L195.83 678.89" stroke="hsl(224.60000000000002, 64.7%, 47.7%)" stroke-width="1.5"></path><path d="M232.06 500.56L411.25 542.75" stroke="hsl(224.60000000000002, 64.7%, 47.7%)" stroke-width="1.5"></path><path d="M232.06 500.56L407.94 647.75" stroke="hsl(224.60000000000002, 64.7%, 47.7%)" stroke-width="1.5"></path><path d="M232.06 500.56L495.03 537.23" stroke="hsl(224.60000000000002, 64.7%, 47.7%)" stroke-width="1.5"></path><path d="M195.83 678.89L195.83 678.89" stroke="hsl(224.60000000000002, 64.7%, 47.7%)" stroke-width="1.5"></path><path d="M195.83 678.89L69.22 530.5" stroke="hsl(224.60000000000002, 64.7%, 47.7%)" stroke-width="1.5"></path><path d="M195.83 678.89L407.94 647.75" stroke="hsl(224.60000000000002, 64.7%, 47.7%)" stroke-width="1.5"></path><path d="M195.83 678.89L411.25 542.75" stroke="hsl(224.60000000000002, 64.7%, 47.7%)" stroke-width="1.5"></path><path d="M411.25 542.75L411.25 542.75" stroke="hsl(224.60000000000002, 64.7%, 47.7%)" stroke-width="1.5"></path><path d="M411.25 542.75L495.03 537.23" stroke="hsl(224.60000000000002, 64.7%, 47.7%)" stroke-width="1.5"></path><path d="M495.03 537.23L495.03 537.23" stroke="hsl(224.60000000000002, 64.7%, 47.7%)" stroke-width="1.5"></path><path d="M495.03 537.23L698.42 503.34" stroke="hsl(224.60000000000002, 64.7%, 47.7%)" stroke-width="1.5"></path><path d="M495.03 537.23L645.87 684.82" stroke="hsl(224.60000000000002, 64.7%, 47.7%)" stroke-width="1.5"></path><path d="M495.03 537.23L710.76 396.88" stroke="hsl(224.60000000000002, 64.7%, 47.7%)" stroke-width="1.5"></path><path d="M710.76 396.88L710.76 396.88" stroke="hsl(224.60000000000002, 64.7%, 47.7%)" stroke-width="1.5"></path><path d="M710.76 396.88L698.42 503.34" stroke="hsl(224.60000000000002, 64.7%, 47.7%)" stroke-width="1.5"></path><path d="M698.42 503.34L698.42 503.34" stroke="hsl(224.60000000000002, 64.7%, 47.7%)" stroke-width="1.5"></path><path d="M698.42 503.34L801.66 660.1" stroke="hsl(224.60000000000002, 64.7%, 47.7%)" stroke-width="1.5"></path><path d="M698.42 503.34L645.87 684.82" stroke="hsl(224.60000000000002, 64.7%, 47.7%)" stroke-width="1.5"></path><path d="M645.87 684.82L645.87 684.82" stroke="hsl(224.60000000000002, 64.7%, 47.7%)" stroke-width="1.5"></path><path d="M645.87 684.82L801.66 660.1" stroke="hsl(224.60000000000002, 64.7%, 47.7%)" stroke-width="1.5"></path><path d="M801.66 660.1L801.66 660.1" stroke="hsl(224.60000000000002, 64.7%, 47.7%)" stroke-width="1.5"></path><path d="M994.85 352.6L994.85 352.6" stroke="hsl(224.60000000000002, 64.7%, 47.7%)" stroke-width="1.5"></path><path d="M994.85 352.6L956.46 520.47" stroke="hsl(224.60000000000002, 64.7%, 47.7%)" stroke-width="1.5"></path><path d="M956.46 520.47L956.46 520.47" stroke="hsl(224.60000000000002, 64.7%, 47.7%)" stroke-width="1.5"></path><path d="M1122.32 215.55L1122.32 215.55" stroke="hsl(224.60000000000002, 64.7%, 47.7%)" stroke-width="1.5"></path><path d="M1122.32 215.55L1250.69 189.14" stroke="hsl(224.60000000000002, 64.7%, 47.7%)" stroke-width="1.5"></path><path d="M1122.32 215.55L994.85 352.6" stroke="hsl(224.60000000000002, 64.7%, 47.7%)" stroke-width="1.5"></path><path d="M1122.32 215.55L1262.83 349.62" stroke="hsl(224.60000000000002, 64.7%, 47.7%)" stroke-width="1.5"></path><path d="M1122.32 215.55L1276.76 80.96" stroke="hsl(224.60000000000002, 64.7%, 47.7%)" stroke-width="1.5"></path><path d="M1094.91 652.19L1094.91 652.19" stroke="hsl(224.60000000000002, 64.7%, 47.7%)" stroke-width="1.5"></path><path d="M1289.94 -103.23L1289.94 -103.23" stroke="hsl(224.60000000000002, 64.7%, 47.7%)" stroke-width="1.5"></path><path d="M1289.94 -103.23L1391.11 -48.39" stroke="hsl(224.60000000000002, 64.7%, 47.7%)" stroke-width="1.5"></path><path d="M1289.94 -103.23L1276.76 80.96" stroke="hsl(224.60000000000002, 64.7%, 47.7%)" stroke-width="1.5"></path><path d="M1289.94 -103.23L1401.83 92.68" stroke="hsl(224.60000000000002, 64.7%, 47.7%)" stroke-width="1.5"></path><path d="M1289.94 -103.23L1135.2 112.08" stroke="hsl(224.60000000000002, 64.7%, 47.7%)" stroke-width="1.5"></path><path d="M1289.94 -103.23L1250.69 189.14" stroke="hsl(224.60000000000002, 64.7%, 47.7%)" stroke-width="1.5"></path><path d="M1289.94 -103.23L1599.58 -38.14" stroke="hsl(224.60000000000002, 64.7%, 47.7%)" stroke-width="1.5"></path><path d="M1276.76 80.96L1276.76 80.96" stroke="hsl(224.60000000000002, 64.7%, 47.7%)" stroke-width="1.5"></path><path d="M1276.76 80.96L1250.69 189.14" stroke="hsl(224.60000000000002, 64.7%, 47.7%)" stroke-width="1.5"></path><path d="M1276.76 80.96L1401.83 92.68" stroke="hsl(224.60000000000002, 64.7%, 47.7%)" stroke-width="1.5"></path><path d="M1276.76 80.96L1135.2 112.08" stroke="hsl(224.60000000000002, 64.7%, 47.7%)" stroke-width="1.5"></path><path d="M1276.76 80.96L1391.11 -48.39" stroke="hsl(224.60000000000002, 64.7%, 47.7%)" stroke-width="1.5"></path><path d="M1250.69 189.14L1250.69 189.14" stroke="hsl(224.60000000000002, 64.7%, 47.7%)" stroke-width="1.5"></path><path d="M1250.69 189.14L1262.83 349.62" stroke="hsl(224.60000000000002, 64.7%, 47.7%)" stroke-width="1.5"></path><path d="M1262.83 349.62L1262.83 349.62" stroke="hsl(224.60000000000002, 64.7%, 47.7%)" stroke-width="1.5"></path><path d="M1262.83 349.62L1406.77 387.52" stroke="hsl(224.60000000000002, 64.7%, 47.7%)" stroke-width="1.5"></path><path d="M1262.83 349.62L1110.73 490.34" stroke="hsl(224.60000000000002, 64.7%, 47.7%)" stroke-width="1.5"></path><path d="M1262.83 349.62L1414.83 201.77" stroke="hsl(224.60000000000002, 64.7%, 47.7%)" stroke-width="1.5"></path><path d="M1299.03 668.86L1299.03 668.86" stroke="hsl(224.60000000000002, 64.7%, 47.7%)" stroke-width="1.5"></path><path d="M1299.03 668.86L1395.56 704.27" stroke="hsl(224.60000000000002, 64.7%, 47.7%)" stroke-width="1.5"></path><path d="M1391.11 -48.39L1391.11 -48.39" stroke="hsl(224.60000000000002, 64.7%, 47.7%)" stroke-width="1.5"></path><path d="M1391.11 -48.39L1401.83 92.68" stroke="hsl(224.60000000000002, 64.7%, 47.7%)" stroke-width="1.5"></path><path d="M1401.83 92.68L1401.83 92.68" stroke="hsl(224.60000000000002, 64.7%, 47.7%)" stroke-width="1.5"></path><path d="M1406.77 387.52L1406.77 387.52" stroke="hsl(224.60000000000002, 64.7%, 47.7%)" stroke-width="1.5"></path><path d="M1406.77 387.52L1549.06 407.17" stroke="hsl(224.60000000000002, 64.7%, 47.7%)" stroke-width="1.5"></path><path d="M1406.77 387.52L1461.71 561.14" stroke="hsl(224.60000000000002, 64.7%, 47.7%)" stroke-width="1.5"></path><path d="M1461.71 561.14L1461.71 561.14" stroke="hsl(224.60000000000002, 64.7%, 47.7%)" stroke-width="1.5"></path><path d="M1461.71 561.14L1564.07 534" stroke="hsl(224.60000000000002, 64.7%, 47.7%)" stroke-width="1.5"></path><path d="M1395.56 704.27L1395.56 704.27" stroke="hsl(224.60000000000002, 64.7%, 47.7%)" stroke-width="1.5"></path><path d="M1395.56 704.27L1541.22 703.82" stroke="hsl(224.60000000000002, 64.7%, 47.7%)" stroke-width="1.5"></path><path d="M1395.56 704.27L1461.71 561.14" stroke="hsl(224.60000000000002, 64.7%, 47.7%)" stroke-width="1.5"></path><path d="M1599.58 -38.14L1599.58 -38.14" stroke="hsl(224.60000000000002, 64.7%, 47.7%)" stroke-width="1.5"></path><path d="M1599.58 -38.14L1596.25 95.02" stroke="hsl(224.60000000000002, 64.7%, 47.7%)" stroke-width="1.5"></path><path d="M1599.58 -38.14L1391.11 -48.39" stroke="hsl(224.60000000000002, 64.7%, 47.7%)" stroke-width="1.5"></path><path d="M1599.58 -38.14L1401.83 92.68" stroke="hsl(224.60000000000002, 64.7%, 47.7%)" stroke-width="1.5"></path><path d="M1599.58 -38.14L1566.44 240.01" stroke="hsl(224.60000000000002, 64.7%, 47.7%)" stroke-width="1.5"></path><path d="M1599.58 -38.14L1414.83 201.77" stroke="hsl(224.60000000000002, 64.7%, 47.7%)" stroke-width="1.5"></path><path d="M1596.25 95.02L1596.25 95.02" stroke="hsl(224.60000000000002, 64.7%, 47.7%)" stroke-width="1.5"></path><path d="M1596.25 95.02L1566.44 240.01" stroke="hsl(224.60000000000002, 64.7%, 47.7%)" stroke-width="1.5"></path><path d="M1596.25 95.02L1401.83 92.68" stroke="hsl(224.60000000000002, 64.7%, 47.7%)" stroke-width="1.5"></path><path d="M1596.25 95.02L1414.83 201.77" stroke="hsl(224.60000000000002, 64.7%, 47.7%)" stroke-width="1.5"></path><path d="M1596.25 95.02L1391.11 -48.39" stroke="hsl(224.60000000000002, 64.7%, 47.7%)" stroke-width="1.5"></path><path d="M1566.44 240.01L1566.44 240.01" stroke="hsl(224.60000000000002, 64.7%, 47.7%)" stroke-width="1.5"></path><path d="M1566.44 240.01L1549.06 407.17" stroke="hsl(224.60000000000002, 64.7%, 47.7%)" stroke-width="1.5"></path><path d="M1549.06 407.17L1549.06 407.17" stroke="hsl(224.60000000000002, 64.7%, 47.7%)" stroke-width="1.5"></path><path d="M1549.06 407.17L1564.07 534" stroke="hsl(224.60000000000002, 64.7%, 47.7%)" stroke-width="1.5"></path><path d="M1564.07 534L1564.07 534" stroke="hsl(224.60000000000002, 64.7%, 47.7%)" stroke-width="1.5"></path><path d="M1541.22 703.82L1541.22 703.82" stroke="hsl(224.60000000000002, 64.7%, 47.7%)" stroke-width="1.5"></path><path d="M1541.22 703.82L1461.71 561.14" stroke="hsl(224.60000000000002, 64.7%, 47.7%)" stroke-width="1.5"></path><path d="M1541.22 703.82L1564.07 534" stroke="hsl(224.60000000000002, 64.7%, 47.7%)" stroke-width="1.5"></path><circle r="25" cx="407.94" cy="647.75" fill="url(#SvgjsRadialGradient1034)"></circle><circle r="25" cx="555.44" cy="671.88" fill="url(#SvgjsRadialGradient1034)"></circle><circle r="25" cx="835.25" cy="351.68" fill="url(#SvgjsRadialGradient1034)"></circle><circle r="25" cx="808.7" cy="520.44" fill="url(#SvgjsRadialGradient1034)"></circle><circle r="25" cx="968.01" cy="669.97" fill="url(#SvgjsRadialGradient1034)"></circle><circle r="25" cx="1135.2" cy="112.08" fill="url(#SvgjsRadialGradient1034)"></circle><circle r="25" cx="1110.73" cy="490.34" fill="url(#SvgjsRadialGradient1034)"></circle><circle r="25" cx="1288.13" cy="508.38" fill="url(#SvgjsRadialGradient1034)"></circle><circle r="25" cx="1414.83" cy="201.77" fill="url(#SvgjsRadialGradient1034)"></circle><circle r="5" cx="-105.9" cy="552.19" fill="#90a0cd"></circle><circle r="5" cx="-92.43" cy="674.37" fill="#90a0cd"></circle><circle r="5" cx="69.22" cy="530.5" fill="#90a0cd"></circle><circle r="5" cx="232.06" cy="500.56" fill="#90a0cd"></circle><circle r="5" cx="195.83" cy="678.89" fill="#90a0cd"></circle><circle r="5" cx="411.25" cy="542.75" fill="#90a0cd"></circle><circle r="5" cx="495.03" cy="537.23" fill="#90a0cd"></circle><circle r="5" cx="710.76" cy="396.88" fill="#90a0cd"></circle><circle r="5" cx="698.42" cy="503.34" fill="#90a0cd"></circle><circle r="5" cx="645.87" cy="684.82" fill="#90a0cd"></circle><circle r="5" cx="801.66" cy="660.1" fill="#90a0cd"></circle><circle r="5" cx="994.85" cy="352.6" fill="#90a0cd"></circle><circle r="5" cx="956.46" cy="520.47" fill="#90a0cd"></circle><circle r="5" cx="1122.32" cy="215.55" fill="#90a0cd"></circle><circle r="5" cx="1094.91" cy="652.19" fill="#90a0cd"></circle><circle r="5" cx="1289.94" cy="-103.23" fill="#90a0cd"></circle><circle r="5" cx="1276.76" cy="80.96" fill="#90a0cd"></circle><circle r="5" cx="1250.69" cy="189.14" fill="#90a0cd"></circle><circle r="5" cx="1262.83" cy="349.62" fill="#90a0cd"></circle><circle r="5" cx="1299.03" cy="668.86" fill="#90a0cd"></circle><circle r="5" cx="1391.11" cy="-48.39" fill="#90a0cd"></circle><circle r="5" cx="1401.83" cy="92.68" fill="#90a0cd"></circle><circle r="5" cx="1406.77" cy="387.52" fill="#90a0cd"></circle><circle r="5" cx="1461.71" cy="561.14" fill="#90a0cd"></circle><circle r="5" cx="1395.56" cy="704.27" fill="#90a0cd"></circle><circle r="5" cx="1599.58" cy="-38.14" fill="#90a0cd"></circle><circle r="5" cx="1596.25" cy="95.02" fill="#90a0cd"></circle><circle r="5" cx="1566.44" cy="240.01" fill="#90a0cd"></circle><circle r="5" cx="1549.06" cy="407.17" fill="#90a0cd"></circle><circle r="5" cx="1564.07" cy="534" fill="#90a0cd"></circle><circle r="5" cx="1541.22" cy="703.82" fill="#90a0cd"></circle></g><defs><mask id="SvgjsMask1033"><rect width="1440" height="560" fill="#ffffff"></rect></mask><radialGradient id="SvgjsRadialGradient1034"><stop stop-color="#ffffff" offset="0.1"></stop><stop stop-color="rgba(33, 64, 154, 1)" offset="0.2"></stop><stop stop-color="rgba(33, 64, 154, 0)" offset="1"></stop></radialGradient></defs></svg>